<?xml version="1.0" encoding="UTF-8" standalone="no"?>
<!-- Created with Inkscape (http://www.inkscape.org/) -->

<svg
   width="500"
   height="200"
   viewBox="0 0 132.29166 52.916667"
   version="1.1"
   id="svg1"
   inkscape:version="1.3.2 (091e20e, 2023-11-25, custom)"
   sodipodi:docname="Logotip de la Diputació de València.svg"
   xmlns:inkscape="http://www.inkscape.org/namespaces/inkscape"
   xmlns:sodipodi="http://sodipodi.sourceforge.net/DTD/sodipodi-0.dtd"
   xmlns="http://www.w3.org/2000/svg"
   xmlns:svg="http://www.w3.org/2000/svg">
  <sodipodi:namedview
     id="namedview1"
     pagecolor="#ffffff"
     bordercolor="#000000"
     borderopacity="0.25"
     inkscape:showpageshadow="2"
     inkscape:pageopacity="0.0"
     inkscape:pagecheckerboard="0"
     inkscape:deskcolor="#d1d1d1"
     inkscape:document-units="mm"
     inkscape:zoom="1.4182379"
     inkscape:cx="189.31943"
     inkscape:cy="77.561034"
     inkscape:window-width="1920"
     inkscape:window-height="991"
     inkscape:window-x="-9"
     inkscape:window-y="-9"
     inkscape:window-maximized="1"
     inkscape:current-layer="layer1" />
  <defs
     id="defs1">
    <clipPath
       clipPathUnits="userSpaceOnUse"
       id="clipPath46">
      <path
         d="M 0,141.553 H 425.197 V 0 H 0 Z"
         transform="translate(-75.343299,-38.900801)"
         id="path46" />
    </clipPath>
    <clipPath
       clipPathUnits="userSpaceOnUse"
       id="clipPath44">
      <path
         d="M 0,141.553 H 425.197 V 0 H 0 Z"
         transform="translate(-86.213305,-62.459202)"
         id="path44" />
    </clipPath>
    <clipPath
       clipPathUnits="userSpaceOnUse"
       id="clipPath42">
      <path
         d="M 0,141.553 H 425.197 V 0 H 0 Z"
         transform="translate(-89.097002,-112.3165)"
         id="path42" />
    </clipPath>
    <clipPath
       clipPathUnits="userSpaceOnUse"
       id="clipPath40">
      <path
         d="M 0,141.553 H 425.197 V 0 H 0 Z"
         id="path40" />
    </clipPath>
    <clipPath
       clipPathUnits="userSpaceOnUse"
       id="clipPath38">
      <path
         d="M 0,141.553 H 425.197 V 0 H 0 Z"
         transform="translate(-355.16851,-34.182798)"
         id="path38" />
    </clipPath>
    <clipPath
       clipPathUnits="userSpaceOnUse"
       id="clipPath36">
      <path
         d="M 0,141.553 H 425.197 V 0 H 0 Z"
         id="path36" />
    </clipPath>
    <clipPath
       clipPathUnits="userSpaceOnUse"
       id="clipPath34">
      <path
         d="M 0,141.553 H 425.197 V 0 H 0 Z"
         transform="translate(-324.02321,-39.720701)"
         id="path34" />
    </clipPath>
    <clipPath
       clipPathUnits="userSpaceOnUse"
       id="clipPath32">
      <path
         d="M 0,141.553 H 425.197 V 0 H 0 Z"
         transform="translate(-301.14581,-51.560801)"
         id="path32" />
    </clipPath>
    <clipPath
       clipPathUnits="userSpaceOnUse"
       id="clipPath30">
      <path
         d="M 0,141.553 H 425.197 V 0 H 0 Z"
         transform="translate(-294.27121,-35.376303)"
         id="path30" />
    </clipPath>
    <clipPath
       clipPathUnits="userSpaceOnUse"
       id="clipPath28">
      <path
         d="M 0,141.553 H 425.197 V 0 H 0 Z"
         id="path28" />
    </clipPath>
    <clipPath
       clipPathUnits="userSpaceOnUse"
       id="clipPath26">
      <path
         d="M 0,141.553 H 425.197 V 0 H 0 Z"
         transform="translate(-245.82391,-34.182798)"
         id="path26" />
    </clipPath>
    <clipPath
       clipPathUnits="userSpaceOnUse"
       id="clipPath24">
      <path
         d="M 0,141.553 H 425.197 V 0 H 0 Z"
         transform="translate(-218.68261,-61.108902)"
         id="path24" />
    </clipPath>
    <clipPath
       clipPathUnits="userSpaceOnUse"
       id="clipPath22">
      <path
         d="M 0,141.553 H 425.197 V 0 H 0 Z"
         transform="translate(-205.74471,-35.376303)"
         id="path22" />
    </clipPath>
    <clipPath
       clipPathUnits="userSpaceOnUse"
       id="clipPath20">
      <path
         d="M 0,141.553 H 425.197 V 0 H 0 Z"
         transform="translate(-162.80121,-39.720701)"
         id="path20" />
    </clipPath>
    <clipPath
       clipPathUnits="userSpaceOnUse"
       id="clipPath18">
      <path
         d="M 0,141.553 H 425.197 V 0 H 0 Z"
         transform="translate(-319.77781,-90.850702)"
         id="path18" />
    </clipPath>
    <clipPath
       clipPathUnits="userSpaceOnUse"
       id="clipPath16">
      <path
         d="M 0,141.553 H 425.197 V 0 H 0 Z"
         id="path16" />
    </clipPath>
    <clipPath
       clipPathUnits="userSpaceOnUse"
       id="clipPath14">
      <path
         d="M 0,141.553 H 425.197 V 0 H 0 Z"
         transform="translate(-288.59911,-90.850702)"
         id="path14" />
    </clipPath>
    <clipPath
       clipPathUnits="userSpaceOnUse"
       id="clipPath12">
      <path
         d="M 0,141.553 H 425.197 V 0 H 0 Z"
         transform="translate(-266.23231,-85.312502)"
         id="path12" />
    </clipPath>
    <clipPath
       clipPathUnits="userSpaceOnUse"
       id="clipPath10">
      <path
         d="M 0,141.553 H 425.197 V 0 H 0 Z"
         transform="translate(-254.17291,-86.840202)"
         id="path10" />
    </clipPath>
    <clipPath
       clipPathUnits="userSpaceOnUse"
       id="clipPath8">
      <path
         d="M 0,141.553 H 425.197 V 0 H 0 Z"
         transform="translate(-228.5737,-88.033802)"
         id="path8" />
    </clipPath>
    <clipPath
       clipPathUnits="userSpaceOnUse"
       id="clipPath6">
      <path
         d="M 0,141.553 H 425.197 V 0 H 0 Z"
         transform="translate(-203.28051,-102.6905)"
         id="path6" />
    </clipPath>
    <clipPath
       clipPathUnits="userSpaceOnUse"
       id="clipPath4">
      <path
         d="M 0,141.553 H 425.197 V 0 H 0 Z"
         id="path4" />
    </clipPath>
    <clipPath
       clipPathUnits="userSpaceOnUse"
       id="clipPath2">
      <path
         d="M 0,141.553 H 425.197 V 0 H 0 Z"
         transform="translate(-164.52,-112.2389)"
         id="path2" />
    </clipPath>
  </defs>
  <g
     inkscape:label="Capa 1"
     inkscape:groupmode="layer"
     id="layer1"
     transform="translate(-57.646358,-128.29011)">
    <g
       id="g49"
       transform="matrix(0.96619099,0,0,0.96619099,1.9489661,4.3373614)">
      <path
         id="path1"
         clip-path="url(#clipPath2)"
         style="fill:#050606;fill-opacity:1;fill-rule:nonzero;stroke:none"
         d="m 171.58531,1.1927906 -8.9751,-5.2514651 1.24073,-2.5781251 9.54931,4.3930666 z M -75.422512,0.07804446 V -34.515707 h 11.033203 c 10.68599,0 18.786622,7.157886 18.786622,17.296876 0,10.6859889 -7.504633,17.29687546 -18.786622,17.29687546 z M -24.55874,0.07657962 V -84.373132 h 3.388183 V 0.07657962 Z M -6.3362454e-4,4.077387e-4 V -33.22811 H 9.3567887 c 10.2649893,0 17.4741223,6.874269 17.4741223,16.614259 0,10.3589897 -6.636133,16.6142587387 -17.4741223,16.6142587387 z M 30.028665,-0.76424074 V -5.5381668 h 4.583496 v 4.77392606 z m 117.834965,0 V -5.5381668 h 4.58203 v 4.77392606 z M 93.56773,-2.5308424 89.652203,-3.294026 v -6.2548831 h -4.152832 v -3.6284179 h 4.152832 v -12.221192 c 0,-5.107995 2.339596,-8.402344 7.82959,-8.402344 1.289999,0 3.008317,0.334309 3.820317,0.716308 l -0.95508,3.436524 c -0.764002,-0.334 -1.814343,-0.572754 -2.673342,-0.572754 -2.864997,0 -4.105958,1.336499 -4.105958,4.583496 v 12.459962 h 6.73096 v 3.6284179 H 93.56773 Z M 4.1053236,-3.8184401 h 4.9174807 c 9.3099907,0 13.6054697,-4.3454193 13.6054697,-12.7954109 0,-7.877992 -4.868478,-12.795411 -13.6054697,-12.795411 H 4.1053236 Z M -68.464504,-6.3833816 h 4.125 c 7.703992,0 11.680665,-3.4784572 11.680665,-10.8354494 0,-6.907994 -4.473672,-10.83545 -11.680665,-10.83545 h -4.125 z M 50.409037,-8.9746904 c -2.911997,0 -5.966912,-1.3379496 -7.732911,-4.9189456 v 4.3447269 H 38.760599 V -42.775962 h 3.915527 v 13.892579 c 1.765999,-3.580996 4.820914,-4.91748 7.732911,-4.91748 6.014994,0 10.55127,4.536094 10.55127,12.413086 0,7.590992 -4.536276,12.4130866 -10.55127,12.4130866 z m 61.233403,0 c -4.344,0 -7.59154,-2.0536726 -9.64453,-6.1596686 l 3.19922,-1.718261 c 1.14599,2.911997 3.67631,4.391601 6.44531,4.391601 3.43699,0 5.25146,-1.239971 5.25146,-3.292969 0,-1.479998 -0.47719,-2.244235 -3.86718,-2.865234 l -3.29297,-0.621094 c -5.013,-0.954999 -8.02149,-3.53204 -8.02149,-7.686035 0,-3.818997 3.19971,-6.874512 8.1167,-6.874512 3.103,0 5.82327,1.431159 7.44727,4.535156 0.095,-1.288999 0.33452,-2.816404 0.81152,-3.962403 h 3.91406 c -0.955,2.004998 -1.04882,3.674991 -1.04882,6.062989 v 9.118653 c 0,6.205994 -3.62856,9.0717776 -9.31055,9.0717776 z m 23.84619,0 c -6.82699,0 -11.40967,-4.9650936 -11.40967,-12.4130866 0,-7.542992 4.58268,-12.413086 11.40967,-12.413086 4.679,0 8.45109,2.864825 9.78809,7.59082 l -3.48633,1.337403 c -1.002,-3.580997 -3.15019,-5.30127 -6.49219,-5.30127 -4.58299,0 -7.2085,3.057139 -7.2085,8.786133 0,5.728994 2.62551,8.784668 7.2085,8.784668 3.342,0 5.58519,-1.814808 6.49219,-5.299804 l 3.48633,1.337402 c -1.289,4.678995 -5.06109,7.5908206 -9.78809,7.5908206 z m 31.13233,0 c -6.159,0 -11.3628,-4.8220946 -11.3628,-12.4130866 0,-7.876992 5.2038,-12.413086 11.3628,-12.413086 6.15799,0 11.36133,4.822094 11.36133,12.413086 0,7.876992 -5.20334,12.4130866 -11.36133,12.4130866 z M 64.054057,-9.5474443 V -24.204672 c 0,-5.967994 3.199229,-9.596191 8.928223,-9.596191 2.911997,0 5.346959,1.384499 6.730958,4.583496 V -33.22811 H 83.6273 V -9.5474443 H 79.713238 V -21.913656 c 0,-5.585994 -2.101118,-8.354004 -6.016114,-8.354004 -4.105996,0 -5.729004,2.098947 -5.729004,7.064942 v 13.6552737 z m -33.691408,-0.00146 V -33.229574 h 3.915528 v 23.6806649 z m 117.834971,0 V -33.229574 h 3.91552 V -9.5489091 Z M -89.177396,-10.950765 c -11.432984,-5.448994 -18.820314,-17.693862 -18.820314,-31.193849 0,-13.500986 7.38733,-25.745855 18.820314,-31.193849 l 3.194824,6.703125 c -8.862991,4.222996 -14.589848,13.836735 -14.589848,24.490724 0,10.653989 5.726857,20.268193 14.589848,24.492189 z m 138.965339,-1.652344 c 4.487996,0 7.161622,-3.150674 7.161622,-8.784668 0,-5.632994 -2.673626,-8.786133 -7.161622,-8.786133 -4.486995,0 -7.160157,3.153139 -7.160157,8.786133 0,5.633994 2.673162,8.784668 7.160157,8.784668 z m 116.833017,0 c 4.48699,0 7.35058,-3.151674 7.35058,-8.784668 0,-5.633994 -2.86359,-8.786133 -7.35058,-8.786133 -4.488,0 -7.35352,3.152139 -7.35352,8.786133 0,5.632994 2.86552,8.784668 7.35352,8.784668 z m -49.5835,-7.973144 v -2.387696 c 0,-4.965995 -2.19553,-7.398926 -6.54053,-7.398926 -3.055,0 -4.86914,1.52628 -4.86914,4.009278 0,2.291997 1.38399,3.581512 6.06299,4.249511 1.766,0.286 3.91468,0.667833 5.34668,1.527833 z M -78.30679,-49.77938 -64.93716,-84.373132 h 6.361816 l 13.371095,34.593752 h -7.306641 l -9.146485,-23.907716 -9.14502,23.907716 z m 196.55274,-0.109863 -1.81494,-3.437989 9.54785,-4.391601 1.24219,2.578125 z M 16.471535,-51.129966 v -13.940919 c -1.336998,3.197997 -4.488843,4.965821 -7.7358401,4.965821 -6.0149939,0 -10.4545903,-5.299094 -10.4545903,-12.413087 0,-7.399992 4.4395964,-12.413086 10.4545903,-12.413086 3.2949971,0 6.2558421,1.815148 7.7358401,5.348145 v -4.775391 h 3.914063 v 33.228517 z m 37.690432,0 12.84375,-33.228517 h 3.675294 l 12.842285,33.228517 h -4.248047 l -10.36084,-27.068849 -10.359376,27.068849 z m 50.835943,0 v -33.228517 h 3.91552 v 33.228517 z m 78.29004,-0.764648 v -4.773926 h 4.5835 v 4.773926 z m -148.794441,-8.21045 c -6.635994,0 -10.7417,-5.156094 -10.7417,-12.413087 0,-7.208992 3.819586,-12.413086 11.267579,-12.413086 4.009996,0 7.542854,1.766657 9.547852,6.493653 l -3.342774,1.574707 c -1.145999,-3.150997 -3.245081,-4.439942 -6.205078,-4.439942 -4.773996,0 -7.305052,2.865135 -7.352051,8.307129 h 17.233887 c 0,8.067992 -3.867722,12.890626 -10.407715,12.890626 z m 56.740725,0 c -4.343995,0 -7.591534,-2.053672 -9.644531,-6.159668 l 3.199218,-1.716797 c 1.145999,2.910997 3.676316,4.391602 6.445313,4.391602 3.436997,0 5.251465,-1.241436 5.251465,-3.294434 0,-1.479999 -0.477191,-2.245235 -3.867187,-2.865235 l -3.292969,-0.621094 c -5.012995,-0.954999 -8.021485,-3.533039 -8.021485,-7.686035 0,-3.818996 3.19824,-6.874512 8.115235,-6.874512 3.102997,0 5.824732,1.432624 7.448731,4.536621 0.095,-1.288999 0.334524,-2.817868 0.811523,-3.963867 h 3.914063 c -0.955,2.004998 -1.05029,3.675991 -1.05029,6.062988 v 9.118653 c 0,6.205994 -3.627091,9.071778 -9.309086,9.071778 z m 31.785646,0 c -6.63699,0 -10.7417,-5.156094 -10.7417,-12.413087 0,-7.208992 3.81959,-12.413086 11.26758,-12.413086 4.01,0 7.54285,1.766657 9.54785,6.493653 l -3.34277,1.574707 c -1.146,-3.150997 -3.24508,-4.439942 -6.20508,-4.439942 -4.775,0 -7.30552,2.865135 -7.35352,8.307129 h 17.23536 c 0,8.067992 -3.86773,12.890626 -10.40772,12.890626 z m 24.5874,0 c -2.95999,0 -5.5384,-1.432609 -7.0664,-4.870606 v 4.297852 h -3.91553 v -23.680665 h 3.91553 v 12.604981 c 0,5.585994 2.38676,8.115235 6.30176,8.115235 3.86699,0 5.63378,-2.100827 5.63378,-7.590821 v -13.129395 h 3.91407 v 13.894043 c 0,5.871995 -3.05421,10.359376 -8.78321,10.359376 z m 23.30567,0 c -6.82699,0 -11.40967,-4.965094 -11.40967,-12.413087 0,-7.542992 4.58268,-12.413086 11.40967,-12.413086 4.67899,0 8.44962,2.864825 9.78662,7.590821 l -3.48486,1.337402 c -1.003,-3.579996 -3.15019,-5.299805 -6.49219,-5.299805 -4.583,0 -7.20996,3.055674 -7.20996,8.784668 0,5.728995 2.62696,8.784669 7.20996,8.784669 3.342,0 5.58519,-1.814809 6.49219,-5.299805 l 3.48486,1.337402 c -1.289,4.678996 -5.05963,7.590821 -9.78662,7.590821 z m 29.66602,0 c -4.345,0 -7.59007,-2.053672 -9.64307,-6.159668 l 3.19775,-1.716797 c 1.146,2.910997 3.67532,4.391602 6.44532,4.391602 3.43699,0 5.25146,-1.241436 5.25146,-3.294434 0,-1.479999 -0.47719,-2.245235 -3.86719,-2.865235 l -3.29443,-0.621094 c -5.013,-0.954999 -8.02002,-3.533039 -8.02002,-7.686035 0,-3.818996 3.19824,-6.874512 8.11523,-6.874512 3.103,0 5.82574,1.432624 7.44874,4.536621 0.095,-1.288999 0.33352,-2.817868 0.81152,-3.963867 h 3.91406 c -0.955,2.004998 -1.05029,3.675991 -1.05029,6.062988 v 9.118653 c 0,6.205994 -3.62809,9.071778 -9.30908,9.071778 z m -16.95704,-0.572754 v -23.680665 h 3.91553 v 23.680665 z M 34.303079,-63.543052 c 3.770996,0 6.062973,-2.243763 6.396973,-6.301759 H 27.904641 c 0.525,3.961996 2.913442,6.301759 6.398438,6.301759 z m 88.524911,0 c 3.77199,0 6.06443,-2.243763 6.39843,-6.301759 h -12.79541 c 0.525,3.961996 2.91198,6.301759 6.39698,6.301759 z M 9.4051286,-63.733482 c 4.4879954,0 7.1132814,-3.150674 7.1132814,-8.784669 0,-5.633994 -2.625286,-8.784668 -7.1132814,-8.784668 -4.4879955,0 -7.1132816,3.150674 -7.1132816,8.784668 0,5.633995 2.6252861,8.784669 7.1132816,8.784669 z m 87.2241254,-7.973145 v -2.386231 c 0,-4.965995 -2.196997,-7.400391 -6.541992,-7.400391 -3.054997,0 -4.867676,1.527745 -4.867676,4.010743 0,2.291997 1.383993,3.579047 6.062988,4.248047 1.765998,0.285999 3.914681,0.668833 5.34668,1.527832 z m 109.344736,0 v -2.386231 c 0,-4.965995 -2.19654,-7.400391 -6.54053,-7.400391 -3.056,0 -4.87061,1.527745 -4.87061,4.010743 0,2.291997 1.385,3.579047 6.06299,4.248047 1.766,0.285999 3.91615,0.668833 5.34815,1.527832 z"
         transform="matrix(0.35277776,0,0,-0.35277776,107.94919,140.91454)" />
    </g>
  </g>
</svg>
